<svg width="196" height="196" viewBox="0 0 196 196" fill="none" xmlns="http://www.w3.org/2000/svg">
<mask id="mask0" mask-type="alpha" maskUnits="userSpaceOnUse" x="0" y="0" width="196" height="196">
<path d="M196 98C196 152.124 152.124 196 98 196C43.8761 196 0 152.124 0 98C0 43.8761 43.8761 0 98 0C152.124 0 196 43.8761 196 98Z" fill="#C4C4C4"/>
</mask>
<g mask="url(#mask0)">
<path d="M0 0H97.8054C152.036 0 195.998 43.9623 195.998 98.1926V196H0V0Z" fill="#3AA0FF"/>
<mask id="mask1" mask-type="alpha" maskUnits="userSpaceOnUse" x="0" y="0" width="196" height="196">
<path d="M0 0H97.8054C152.036 0 195.998 43.9623 195.998 98.1926V196H0V0Z" fill="#C4C4C4"/>
</mask>
<g mask="url(#mask1)">
<path d="M-105.973 301.851L238.116 -42.2415L390.84 110.484L46.7504 454.577L-105.973 301.851Z" fill="#2888FF"/>
</g>
<path d="M68.9004 127.099V0H0V127.099V196H68.9004H195.998V127.099H68.9004Z" fill="#0E74FF"/>
<mask id="mask2" mask-type="alpha" maskUnits="userSpaceOnUse" x="0" y="0" width="196" height="196">
<path d="M68.9004 127.099V0H0V127.099V196H68.9004H195.998V127.099H68.9004Z" fill="black"/>
</mask>
<g mask="url(#mask2)">
<path d="M-84.4564 279.887L259.633 -64.2057L412.357 88.5195L68.2672 432.612L-84.4564 279.887Z" fill="#0540FF"/>
</g>
<mask id="mask3" mask-type="alpha" maskUnits="userSpaceOnUse" x="98" y="0" width="98" height="99">
<path d="M98.0007 0.000396729C152.124 0.000396729 196 43.877 196 98.0004H98.0007V0.000396729Z" fill="#AAA4A4"/>
</mask>
<g mask="url(#mask3)">
<path d="M136.747 -48.9099H244.884V59.2281H136.747V-48.9099Z" fill="#B4DBFF"/>
</g>
</g>
</svg>
